<?xml version="1.0" encoding="utf-8"?>
<!-- Generator: Adobe Illustrator 27.3.0, SVG Export Plug-In . SVG Version: 6.00 Build 0)  -->
<svg version="1.1" id="Layer_1" xmlns="http://www.w3.org/2000/svg" xmlns:xlink="http://www.w3.org/1999/xlink" x="0px" y="0px"
	 viewBox="0 0 200 200" style="enable-background:new 0 0 200 200;" xml:space="preserve">
<style type="text/css">
	.st0{fill:#4285F4;}
	.st1{fill:#3DDC84;}
	.st2{fill:#073042;}
	.st3{fill:#3870B2;}
	.st4{fill:#1A4B7D;}
	.st5{fill:#FDFFFE;}
	.st6{fill:#4285F3;}
</style>
<g>
	<path class="st0" d="M136.1,144.2c-3.6,0-7.3,0-11-0.1c-1.5-3-2.9-6-4.3-9c-4.1-8.5-8.2-17-12.3-25.5c-0.3-0.7-0.3-1.1,0.3-1.7
		c4.9-4.8,3.1-12.8-3.4-15.1c-0.5-0.2-0.6-0.4-0.6-0.9c0-1.7,0-3.4,0-5.1c0-0.8-0.4-1.3-1-1.6c-0.6-0.3-1.2-0.2-1.8,0.1
		c-0.2,0.1-0.4,0.3-0.6,0.4c-0.6-0.7-1.3-0.8-2.1-0.5c-0.8,0.3-1.1,1-1.1,1.8c0,1.6,0,3.2,0,4.8c0,0.5-0.2,0.7-0.7,0.8
		c-3.6,0.8-6.8,3.7-7.2,8.4c-0.2,2.3,0.6,4.4,2.1,6.2c0.5,0.6,1,1.2,1.6,1.8c0,0.1-0.1,0.3-0.2,0.4c-5,10.6-9.9,21.2-14.9,31.8
		c-0.5,1-1,1.9-1.5,2.9c-5.8,0-11.6,0-17.5,0c-2.5,0-4.7-0.8-6.6-2.5c-1.9-1.6-3-3.7-3.3-6.2c-0.1-0.6-0.1-1.3-0.1-1.9
		c0-22.3,0-44.7,0-67c0-0.4,0-0.8,0.1-1.2c0.1,0.6,0.2,1.1,0.3,1.7c1.1,4.6,4.5,7.4,9.1,7.6c3,0.1,6,0,9,0.1c0.3,0,0.5,0.1,0.7,0.1
		c20.5,0,40.9,0,61.4,0c0.3,0,0.5-0.1,0.8-0.1c2.1,0,4.2-0.1,6.3,0c2.6,0.1,5.1,0.5,7.4,1.8c2.7,1.4,4.4,3.6,4.7,6.7
		c0.1,0.9,0.1,1.9,0,2.9c-0.1,0.2-0.1,0.4-0.2,0.6c-0.9,4.1-3.8,6.9-8,7.3c-1.5,0.2-3,0.1-4.6,0.1c-0.9,0-1,0.1-1,0.9
		c0,8.4-0.1,16.8-0.1,25.3c0,4.9,0,9.9,0,14.8C136.1,138.2,136.1,141.2,136.1,144.2z"/>
	<path class="st1" d="M131.4,74.8c-0.3,0.1-0.5,0.2-0.8,0.2c-20.5,0-40.9,0-61.4,0c-0.2,0-0.4,0-0.7-0.1c0.1-0.9,0.2-1.8,0.3-2.6
		c0.9-5.2,2.9-9.9,6.2-14.1c0.9-1.2,2-2.3,3-3.4c1.6-1.5,3.4-2.9,5.3-4c0.3-0.2,0.6-0.4,0.9-0.6c-0.9-1.5-1.8-3.1-2.7-4.6
		c-0.8-1.4-1.6-2.8-2.4-4.2c-0.4-0.6-0.2-1.4,0.3-1.7c0.6-0.3,1.3-0.2,1.7,0.5c1.2,1.9,2.3,3.9,3.4,5.9c0.6,1,1.2,2.1,1.8,3.1
		c8.9-3.7,17.9-3.8,26.8,0c1-1.7,2-3.5,3-5.2c0.7-1.2,1.4-2.5,2.1-3.7c0.4-0.7,1-0.9,1.7-0.5c0.5,0.3,0.7,1,0.3,1.6
		c-1.2,2.2-2.5,4.3-3.7,6.5c-0.5,0.8-0.9,1.6-1.3,2.3c1.7,1.2,3.4,2.2,4.9,3.5c1.6,1.4,3.1,2.9,4.4,4.6c1.2,1.6,2.3,3.3,3.3,5
		c1.2,2.3,2.1,4.8,2.6,7.4C131,71.9,131.2,73.3,131.4,74.8 M87.3,65.3c1-0.8,0.9-2.4,0.5-3.2c-0.6-1-1.8-1.5-3.1-1.1
		c-1,0.3-2,1.7-1.8,2.7C83.3,65.8,85.5,66.6,87.3,65.3 M115.9,61.3c-0.6-0.2-1.2-0.5-1.8-0.4c-1.1,0-2.2,1.2-2.3,2.3
		c-0.1,1.1,0.6,2.3,1.7,2.7c1.1,0.4,2.4,0,3.1-1.1C117.3,63.6,117.1,62.3,115.9,61.3z"/>
	<path class="st2" d="M77.6,144.3c0.5-1,1-2,1.5-2.9c5-10.6,9.9-21.2,14.9-31.8c0.1-0.2,0.2-0.4,0.2-0.4c-0.6-0.6-1.1-1.2-1.6-1.8
		c-1.5-1.8-2.3-3.9-2.1-6.2c0.4-4.7,3.5-7.6,7.2-8.4c0.5-0.1,0.7-0.3,0.7-0.8c0-1.6,0-3.2,0-4.8c0-0.8,0.3-1.5,1.1-1.8
		c0.8-0.3,1.5-0.1,2.1,0.6c0.1,0.5,0.3,0.8,0.3,1.2c0,1.6,0,3.3,0,4.9c0,0.6,0.1,0.8,0.7,1c1.8,0.6,3.2,1.6,4.3,3.1
		c2.8,3.8,2.3,8.8-1.2,12.1c-0.4,0.4-0.4,0.6-0.2,1.1c0.6,1.1,1.1,2.3,1.7,3.4c4.3,8.9,8.5,17.8,12.8,26.7c0.8,1.6,1.6,3.2,2.4,4.8
		c1.5,3,3,6.1,4.4,9.2c1.1,2.4-0.2,5.2-2.3,6.3c-2.5,1.3-5.5,0.3-6.7-2.1c-2.2-4.4-4.3-8.8-6.4-13.3c-0.2-0.5-0.4-1-0.7-1.4
		c-2.4-4.9-4.7-9.9-7.1-14.8c-0.5-1-1.2-1.8-2.3-2.1c-2-0.7-3.9,0.2-4.9,2.2c-1.7,3.7-3.4,7.3-5.1,11c-0.8,1.7-1.6,3.5-2.4,5.2
		c-2.1,4.5-4.2,8.9-6.3,13.4c-0.7,1.5-1.9,2.3-3.4,2.7c-2.8,0.7-5.6-1.4-6-4.2c-0.2-1.3,0.2-2.4,0.7-3.5
		C74.9,149.9,76.2,147.1,77.6,144.3 M100.9,106.9c2.6-0.6,4.2-2.8,4.1-6c0-2.2-2-4.3-4.5-4.8c-0.8,0-1.7-0.1-2.5,0.1
		c-2.9,0.8-4.5,3.6-3.9,6.5C94.8,106.1,98.6,107.8,100.9,106.9z"/>
	<path class="st2" d="M136.1,144.3c0-3.1,0.1-6.1,0.1-9.1c0-4.9,0-9.9,0-14.8c0-8.4,0-16.8,0.1-25.3c0-0.9,0.1-0.9,1-0.9
		c1.5,0,3.1,0.1,4.6-0.1c4.1-0.5,7-3.2,8-7.3c0.1,0.3,0.1,0.6,0.1,0.9c0,18.5,0,37,0,55.5c0,0.3,0.1,0.7,0.1,1c0,2.5,0.1,5,0,7.4
		c-0.2,4.4-3.5,8.1-7.7,8.5c-1.8,0.2-3.7,0.1-5.6,0.1c-0.5,0-0.7-0.4-0.7-0.8c0-1.5,0-3.1,0-4.6
		C136.1,151.4,136.1,147.9,136.1,144.3z"/>
	<path class="st2" d="M78.2,54.8c-0.9,1.1-2,2.2-3,3.4c-3.3,4.1-5.4,8.8-6.2,14.1c-0.1,0.8-0.3,1.7-0.4,2.6c-3,0.1-6,0.1-9,0
		c-4.7-0.2-8.1-3.1-9.1-7.6c-0.1-0.5-0.2-1.1-0.3-1.7c-0.3-1.2-0.1-2.2,0.3-3.3c1.3-4.2,4.1-6.6,8.4-7.3c0.5-0.1,1-0.1,1.5-0.1
		C66.2,54.8,72.2,54.8,78.2,54.8z"/>
	<path class="st0" d="M101,125.9c1.1,0.3,1.8,1.1,2.3,2.1c2.4,4.9,4.7,9.9,7.1,14.8c0.2,0.4,0.4,0.9,0.7,1.4c-6.4,0-12.9,0.1-19.4,0
		c2.2-5,4.5-9.9,6.8-14.8C99.1,128,99.7,126.7,101,125.9z"/>
	<path class="st3" d="M122.2,144.3c-0.8-1.6-1.6-3.2-2.4-4.7c-4.3-8.9-8.5-17.8-12.8-26.7c-0.5-1.1-1.1-2.3-1.7-3.4
		c-0.2-0.5-0.2-0.7,0.2-1.1c3.5-3.3,4-8.4,1.2-12.1c-1.1-1.5-2.6-2.6-4.3-3.1c-0.6-0.2-0.7-0.5-0.7-1c0-1.6,0-3.3,0-4.9
		c0-0.4-0.2-0.7-0.3-1.2c0.2-0.2,0.3-0.3,0.5-0.5c0.6-0.4,1.2-0.4,1.8-0.1c0.6,0.3,1,0.8,1,1.6c0,1.7,0,3.4,0,5.1
		c0,0.5,0.1,0.8,0.6,0.9c6.5,2.2,8.3,10.3,3.4,15.1c-0.6,0.6-0.6,1-0.3,1.7c4.1,8.5,8.2,17,12.3,25.5c1.4,3,2.8,5.9,4.3,9
		C124.1,144.2,123.2,144.2,122.2,144.3z"/>
	<path class="st3" d="M101,125.9c-1.2,0.8-1.9,2.1-2.5,3.5c-2.3,4.9-4.6,9.9-6.9,14.8c-1,0.1-1.9,0.1-2.9,0.1
		c0.7-1.7,1.5-3.5,2.3-5.2c1.7-3.7,3.4-7.3,5.1-11C97.1,126.1,99,125.2,101,125.9z"/>
	<path class="st4" d="M150,144.2c0-0.3-0.1-0.6-0.1-0.9c0-18.5,0-37,0-55.5c0-0.3,0-0.6-0.1-1c0-0.2,0-0.3,0.1-0.5
		c0.1,0.2,0.1,0.4,0.1,0.6C150,105.9,150,125,150,144.2z"/>
	<path class="st5" d="M87.3,65.3c-1.8,1.3-4,0.5-4.4-1.7c-0.2-1,0.8-2.4,1.8-2.7c1.3-0.4,2.5,0.1,3.1,1.1
		C88.2,62.8,88.4,64.5,87.3,65.3z"/>
	<path class="st5" d="M115.9,61.3c1.2,1.1,1.4,2.3,0.7,3.5c-0.6,1-1.9,1.5-3.1,1.1c-1.1-0.4-1.9-1.6-1.7-2.7
		c0.1-1.1,1.2-2.2,2.3-2.3C114.7,60.8,115.3,61.1,115.9,61.3z"/>
	<path class="st6" d="M100.6,96.2c2.3,0.4,4.3,2.6,4.4,4.8c0.1,3.2-1.5,5.4-4.2,5.9c-0.1-0.1-0.2-0.1-0.2-0.1
		c-2.2-0.9-3.5-2.5-3.6-4.8c-0.2-2.5,1-4.3,3.3-5.4C100.4,96.4,100.5,96.3,100.6,96.2z"/>
	<path class="st3" d="M100.6,96.1c-0.1,0.1-0.2,0.3-0.4,0.4c-2.2,1.1-3.4,2.9-3.3,5.4c0.2,2.3,1.5,3.9,3.6,4.8c0,0,0.1,0,0.2,0.1
		c-2.2,1-6-0.8-6.6-4.1c-0.6-2.9,1.1-5.7,3.9-6.5C98.8,96,99.7,96.2,100.6,96.1z"/>
</g>
</svg>
