<?xml version="1.0" encoding="utf-8"?>
<!-- Generator: Adobe Illustrator 26.0.1, SVG Export Plug-In . SVG Version: 6.00 Build 0)  -->
<svg version="1.1" id="Layer_1" xmlns="http://www.w3.org/2000/svg" xmlns:xlink="http://www.w3.org/1999/xlink" x="0px" y="0px"
	 viewBox="0 0 200 200" style="enable-background:new 0 0 200 200;" xml:space="preserve">
<style type="text/css">
	.st0{fill:url(#SVGID_1_);}
	.st1{fill:url(#SVGID_00000029765297707029488880000008254414207215330747_);stroke:#FFFFFF;}
</style>
<linearGradient id="SVGID_1_" gradientUnits="userSpaceOnUse" x1="60.0689" y1="133.7002" x2="147.4519" y2="64.3355" gradientTransform="matrix(1 0 0 -1 0 202)">
	<stop  offset="0" style="stop-color:#9013FE"/>
	<stop  offset="1" style="stop-color:#6610F2"/>
</linearGradient>
<path class="st0" d="M61,70.6c-0.2-5.4,4-10.4,9.7-10.4h58.5c5.7,0,9.9,5,9.7,10.4c-0.2,5.2,0.1,11.9,1.8,17.4
	c1.7,5.5,4.6,9,9.3,9.4v5.1c-4.7,0.4-7.6,3.9-9.3,9.4c-1.7,5.5-1.9,12.2-1.8,17.4c0.2,5.4-4,10.4-9.7,10.4H70.8
	c-5.7,0-9.9-5-9.7-10.4c0.2-5.2-0.1-11.9-1.8-17.4c-1.7-5.5-4.6-9-9.3-9.4v-5.1c4.7-0.4,7.6-3.9,9.3-9.4C61,82.5,61.2,75.8,61,70.6z
	"/>
<linearGradient id="SVGID_00000032647231393175096830000001503919714988391561_" gradientUnits="userSpaceOnUse" x1="86.9428" y1="119.9065" x2="106.4752" y2="86.8729" gradientTransform="matrix(1 0 0 -1 0 202)">
	<stop  offset="0" style="stop-color:#FFFFFF"/>
	<stop  offset="1" style="stop-color:#F1E5FC"/>
</linearGradient>
<path style="fill:url(#SVGID_00000032647231393175096830000001503919714988391561_);stroke:#FFFFFF;" d="M102.2,121.2
	c9.2,0,14.8-4.5,14.8-12c0-5.6-4-9.7-9.9-10.4v-0.2c4.3-0.7,7.7-4.7,7.7-9.2c0-6.4-5.1-10.6-12.8-10.6H84.7v42.4H102.2z M91.5,84.2
	h9c4.9,0,7.6,2.2,7.6,6.1c0,4.2-3.2,6.5-9.1,6.5h-7.6C91.5,96.8,91.5,84.2,91.5,84.2z M91.5,115.8v-14h8.9c6.4,0,9.7,2.3,9.7,6.9
	c0,4.6-3.2,7-9.3,7H91.5z"/>
</svg>
