<?xml version="1.0" encoding="utf-8"?>
<!-- Generator: Adobe Illustrator 26.0.1, SVG Export Plug-In . SVG Version: 6.00 Build 0)  -->
<svg version="1.1" id="Layer_1" xmlns="http://www.w3.org/2000/svg" xmlns:xlink="http://www.w3.org/1999/xlink" x="0px" y="0px"
	 viewBox="0 0 200 200" style="enable-background:new 0 0 200 200;" xml:space="preserve">
<style type="text/css">
	.st0{fill:#5C8DBC;}
	.st1{fill:#1A4674;}
	.st2{fill:#1B598E;}
	.st3{fill:#FFFFFF;}
</style>
<path class="st0" d="M148.2,75.8c0-1.9-0.4-3.6-1.2-5c-0.8-1.4-2-2.6-3.6-3.5c-13.3-7.7-26.6-15.3-39.9-23c-3.6-2.1-7.1-2-10.6,0.1
	C87.5,47.5,60.9,62.7,53,67.3c-3.3,1.9-4.8,4.8-4.8,8.5c0,15.4,0,30.9,0,46.3c0,1.8,0.4,3.5,1.2,4.9c0.8,1.5,2,2.7,3.7,3.6
	c7.9,4.6,34.4,19.8,39.7,22.9c3.6,2.1,7,2.2,10.6,0.1c13.3-7.7,26.6-15.3,40-23c1.6-1,2.9-2.2,3.7-3.6c0.8-1.4,1.2-3,1.2-4.9
	C148.2,122.1,148.2,91.2,148.2,75.8"/>
<path class="st1" d="M98.3,98.8l-49,28.2c0.8,1.5,2,2.7,3.7,3.6c7.9,4.6,34.4,19.8,39.7,22.9c3.6,2.1,7,2.2,10.6,0.1
	c13.3-7.7,26.6-15.3,40-23c1.6-1,2.9-2.2,3.7-3.6L98.3,98.8"/>
<path class="st1" d="M83.8,107.2c2.9,5,8.2,8.3,14.4,8.3c6.2,0,11.6-3.4,14.4-8.4l-14.3-8.3L83.8,107.2"/>
<path class="st2" d="M148.2,75.8c0-1.9-0.4-3.6-1.2-5l-48.6,28L147,127c0.8-1.4,1.2-3,1.2-4.9C148.2,122.1,148.2,91.2,148.2,75.8"/>
<path class="st3" d="M145.5,100.8h-3.8v3.8h-3.8v-3.8h-3.8V97h3.8v-3.8h3.8V97h3.8V100.8 M131.6,100.8h-3.8v3.8H124v-3.8h-3.8V97
	h3.8v-3.8h3.8V97h3.8V100.8"/>
<path class="st3" d="M112.6,107.1c-2.8,5-8.2,8.4-14.4,8.4c-6.1,0-11.5-3.4-14.4-8.3c-1.4-2.5-2.2-5.3-2.2-8.2
	c0-9.1,7.4-16.5,16.5-16.5c6.1,0,11.4,3.3,14.3,8.2l14.5-8.3c-5.7-9.9-16.5-16.6-28.8-16.6C79.8,65.7,65,80.6,65,99
	c0,6,1.6,11.7,4.4,16.5c5.7,10,16.5,16.7,28.8,16.7c12.3,0,23.1-6.7,28.8-16.7L112.6,107.1"/>
</svg>
