<?xml version="1.0" encoding="utf-8"?>
<!-- Generator: Adobe Illustrator 26.0.1, SVG Export Plug-In . SVG Version: 6.00 Build 0)  -->
<svg version="1.1" id="Layer_1" xmlns="http://www.w3.org/2000/svg" xmlns:xlink="http://www.w3.org/1999/xlink" x="0px" y="0px"
	 viewBox="0 0 200 200" style="enable-background:new 0 0 200 200;" xml:space="preserve">
<style type="text/css">
	.st0{fill:none;}
	.st1{fill:#2062AF;}
	.st2{fill:#3C9CD7;}
	.st3{fill:#FFFFFF;}
	.st4{fill:url(#SVGID_1_);}
	.st5{fill:url(#SVGID_00000040550727733216295600000000671923369569067392_);}
	.st6{fill:url(#SVGID_00000016795935024049660690000014883174045453386165_);}
	.st7{opacity:5.000000e-02;enable-background:new    ;}
	.st8{fill:url(#SVGID_00000154386523910474955270000017486621875178198966_);}
</style>
<path class="st0" d="M10,10h180v180H10V10z"/>
<path class="st1" d="M145.5,166.2L100,178.5l-45.5-12.3L44,52.4H156L145.5,166.2z"/>
<path class="st2" d="M100,61.6v107.1l0.1,0l36.8-9.9l8.5-97.2L100,61.6L100,61.6z"/>
<path d="M74.2,35.7v-6.8H84v-7.4H66.8v20.9H84v-6.8H74.2z M101.8,28.9h6.9v-7.4H91.4v7.4c2.3,2.3,3.5,3.4,6.9,6.8c-2,0-6.9,0-6.9,0
	v6.8h17.3v-6.8L101.8,28.9L101.8,28.9z M126.3,28.9h6.9v-7.4H116v7.4c2.3,2.3,3.5,3.4,6.9,6.8c-2,0-6.9,0-6.9,0v6.8h17.3v-6.8
	L126.3,28.9L126.3,28.9z"/>
<path class="st3" d="M100,90.1l-32.6,13.6l1.1,13.4l31.5-13.5l33.5-14.3l1.4-13.7L100,90.1L100,90.1z"/>
<linearGradient id="SVGID_1_" gradientUnits="userSpaceOnUse" x1="-1702.6324" y1="-898.7415" x2="-1702.6324" y2="-904.5591" gradientTransform="matrix(4.6418 0 0 4.6418 7986.9497 4288.8799)">
	<stop  offset="0.387" style="stop-color:#D1D3D4;stop-opacity:0"/>
	<stop  offset="1" style="stop-color:#D1D3D4"/>
</linearGradient>
<path class="st4" d="M67.4,103.7l1.1,13.4l31.5-13.5V90.1L67.4,103.7z"/>
<linearGradient id="SVGID_00000136410569101830881970000010212645125981095102_" gradientUnits="userSpaceOnUse" x1="-1695.3635" y1="-901.6431" x2="-1695.3635" y2="-907.6903" gradientTransform="matrix(4.6418 0 0 4.6418 7986.9497 4288.8799)">
	<stop  offset="0.387" style="stop-color:#D1D3D4;stop-opacity:0"/>
	<stop  offset="1" style="stop-color:#D1D3D4"/>
</linearGradient>
<path style="fill:url(#SVGID_00000136410569101830881970000010212645125981095102_);" d="M134.9,75.6L100,90.1v13.5l33.5-14.3
	L134.9,75.6z"/>
<linearGradient id="SVGID_00000177448916282455761160000009102624487143248005_" gradientUnits="userSpaceOnUse" x1="-1706.1312" y1="-896.1467" x2="-1692.1586" y2="-896.1467" gradientTransform="matrix(4.6418 0 0 4.6418 7986.9497 4288.8799)">
	<stop  offset="0" style="stop-color:#E8E7E5"/>
	<stop  offset="1" style="stop-color:#FFFFFF"/>
</linearGradient>
<path style="fill:url(#SVGID_00000177448916282455761160000009102624487143248005_);" d="M67.4,103.7l1.1,13.4l48.3,0.2l-1.1,17.9
	l-15.9,4.5l-15.3-3.9l-0.9-11.1H69.4l1.9,21.5l28.7,8.5l28.6-8.3l3.7-42.6H67.4z"/>
<path class="st7" d="M100,103.7H67.4l1.1,13.4l31.5,0.1L100,103.7L100,103.7z M100,139.6l-0.2,0l-15.3-3.9l-0.9-11.1H69.4l1.9,21.5
	l28.7,8.5V139.6z"/>
<linearGradient id="SVGID_00000109708041048484137240000005156884244238406022_" gradientUnits="userSpaceOnUse" x1="-1706.7742" y1="-906.21" x2="-1691.6044" y2="-906.21" gradientTransform="matrix(4.6418 0 0 4.6418 7986.9497 4288.8799)">
	<stop  offset="0" style="stop-color:#E8E7E5"/>
	<stop  offset="1" style="stop-color:#FFFFFF"/>
</linearGradient>
<path style="fill:url(#SVGID_00000109708041048484137240000005156884244238406022_);" d="M64.4,75.6h70.4l-1.4,13.7H66.1L64.4,75.6
	L64.4,75.6z"/>
<path class="st7" d="M100,75.6H64.4l1.7,13.7H100L100,75.6L100,75.6z"/>
</svg>
