<?xml version="1.0" encoding="utf-8"?>
<!-- Generator: Adobe Illustrator 26.0.1, SVG Export Plug-In . SVG Version: 6.00 Build 0)  -->
<svg version="1.1" id="Layer_1" xmlns="http://www.w3.org/2000/svg" xmlns:xlink="http://www.w3.org/1999/xlink" x="0px" y="0px"
	 viewBox="0 0 200 200" style="enable-background:new 0 0 200 200;" xml:space="preserve">
<style type="text/css">
	.st0{fill:url(#SVGID_1_);}
	.st1{fill:url(#SVGID_00000155859681224906885350000005864601461891197837_);}
	.st2{fill:url(#SVGID_00000008108922772984038730000008312020568736645012_);}
	.st3{fill:url(#SVGID_00000103954719170443241390000003576350901831604659_);}
	.st4{fill:url(#SVGID_00000112627203748565821450000007695660650005176762_);}
	.st5{fill:#FFFFFF;}
</style>
<linearGradient id="SVGID_1_" gradientUnits="userSpaceOnUse" x1="141.5566" y1="113.3755" x2="144.4733" y2="87.9172" gradientTransform="matrix(1 0 0 -1 0 201)">
	<stop  offset="0.16" style="stop-color:#21D789"/>
	<stop  offset="0.54" style="stop-color:#419FBC"/>
	<stop  offset="1" style="stop-color:#6B57FF"/>
</linearGradient>
<path class="st0" d="M143.6,65.5l6.4,40.9l-11.8,6.9L143.6,65.5z"/>
<linearGradient id="SVGID_00000141446598310294148350000017225089345097080704_" gradientUnits="userSpaceOnUse" x1="114.9534" y1="124.3104" x2="122.3492" y2="143.227" gradientTransform="matrix(1 0 0 -1 0 201)">
	<stop  offset="0" style="stop-color:#6B57FF"/>
	<stop  offset="0.95" style="stop-color:#21D789"/>
</linearGradient>
<path style="fill:url(#SVGID_00000141446598310294148350000017225089345097080704_);" d="M143.6,65.5L107.8,50l-10,8.3L143.6,65.5z"
	/>
<linearGradient id="SVGID_00000160170235796519836560000017817621798734570656_" gradientUnits="userSpaceOnUse" x1="74.0767" y1="100.5089" x2="81.2642" y2="69.2172" gradientTransform="matrix(1 0 0 -1 0 201)">
	<stop  offset="0" style="stop-color:#6B57FF"/>
	<stop  offset="2.000000e-02" style="stop-color:#685CFB"/>
	<stop  offset="0.28" style="stop-color:#4A91CA"/>
	<stop  offset="0.51" style="stop-color:#34B7A7"/>
	<stop  offset="0.69" style="stop-color:#26CE91"/>
	<stop  offset="0.8" style="stop-color:#21D789"/>
</linearGradient>
<path style="fill:url(#SVGID_00000160170235796519836560000017817621798734570656_);" d="M117.6,150L62,105.7l-11.2,33.6L117.6,150z
	"/>
<linearGradient id="SVGID_00000004531657556925374510000006559122435356919183_" gradientUnits="userSpaceOnUse" x1="56.2312" y1="100.9933" x2="143.8562" y2="52.6079" gradientTransform="matrix(1 0 0 -1 0 201)">
	<stop  offset="8.000000e-02" style="stop-color:#21D789"/>
	<stop  offset="0.89" style="stop-color:#6B57FF"/>
</linearGradient>
<path style="fill:url(#SVGID_00000004531657556925374510000006559122435356919183_);" d="M125.3,122L50,96.2l67.6,53.8L125.3,122z"
	/>
<linearGradient id="SVGID_00000059996553006337457610000009804702161073650868_" gradientUnits="userSpaceOnUse" x1="56.7604" y1="112.6562" x2="144.8333" y2="112.6562" gradientTransform="matrix(1 0 0 -1 0 201)">
	<stop  offset="0.31" style="stop-color:#21D789"/>
	<stop  offset="0.49" style="stop-color:#59A3B2"/>
	<stop  offset="0.77" style="stop-color:#B74AF7"/>
	<stop  offset="1" style="stop-color:#FF45ED"/>
</linearGradient>
<path style="fill:url(#SVGID_00000059996553006337457610000009804702161073650868_);" d="M50,50.7v45.4l86.8,29.8l6.8-60.4L50,50.7z
	"/>
<path d="M68.8,68.6h62.5v62.5H68.8V68.6z"/>
<g>
	<path class="st5" d="M75.1,76.8h10.1c8.1,0,13.8,5.6,13.8,12.9v0.1c0,7.3-5.6,12.9-13.8,12.9H75.1V76.8z M80.8,81.9v15.6h4.4
		c4.1,0.2,7.6-2.9,7.8-6.9c0-0.3,0-0.5,0-0.8v-0.1c0.2-4.1-2.9-7.6-7-7.8c-0.3,0-0.5,0-0.8,0H80.8z"/>
	<path class="st5" d="M99.9,89.8L99.9,89.8c-0.1-7.4,5.8-13.4,13.2-13.5c0.1,0,0.2,0,0.4,0c3.7-0.2,7.4,1.1,10.2,3.6l-3.6,4.3
		c-1.8-1.7-4.2-2.7-6.8-2.6c-4.2,0-7.4,3.7-7.4,8.1v0.1c0,4.7,3.3,8.2,7.8,8.2c1.9,0.1,3.8-0.5,5.4-1.5v-3.7h-5.7v-4.9h11.2V99
		c-3.1,2.7-7,4.1-11.1,4.1C105.5,103.1,99.9,97.4,99.9,89.8z"/>
	<path class="st5" d="M74.5,119.4h23.4v3.9H74.5V119.4z"/>
</g>
</svg>
