<?xml version="1.0" encoding="utf-8"?>
<!-- Generator: Adobe Illustrator 26.0.1, SVG Export Plug-In . SVG Version: 6.00 Build 0)  -->
<svg version="1.1" id="Layer_1" xmlns="http://www.w3.org/2000/svg" xmlns:xlink="http://www.w3.org/1999/xlink" x="0px" y="0px"
	 viewBox="0 0 200 200" style="enable-background:new 0 0 200 200;" xml:space="preserve">
<style type="text/css">
	.st0{fill:#F34F29;}
</style>
<path class="st0" d="M148.1,95.5l-43.7-43.7c-2.5-2.5-6.6-2.5-9.1,0L86.3,61l11.5,11.5c2.7-0.9,5.7-0.3,7.9,1.8
	c2.1,2.1,2.7,5.2,1.8,7.9l11.1,11.1c2.7-0.9,5.8-0.3,7.9,1.8c3,3,3,7.8,0,10.8c-3,3-7.8,3-10.8,0c-2.3-2.3-2.8-5.6-1.7-8.3
	l-10.3-10.3l0,27.2c0.7,0.4,1.4,0.8,2,1.4c3,3,3,7.8,0,10.8c-3,3-7.8,3-10.8,0c-3-3-3.2-7.8-0.2-10.8c0.7-0.7,1.5-1.3,2.3-1.7V86.8
	c-0.8-0.4-1.5-0.9-2.3-1.7c-2.3-2.3-2.7-5.6-1.5-8.4L81.8,65.4L51.9,95.3c-2.5,2.5-2.5,6.6,0,9.1l43.7,43.7c2.5,2.5,6.6,2.5,9.1,0
	l43.4-43.4C150.6,102.1,150.6,98.1,148.1,95.5L148.1,95.5z"/>
</svg>
