<?xml version="1.0" encoding="utf-8"?>
<!-- Generator: Adobe Illustrator 26.0.1, SVG Export Plug-In . SVG Version: 6.00 Build 0)  -->
<svg version="1.1" id="Layer_1" xmlns="http://www.w3.org/2000/svg" xmlns:xlink="http://www.w3.org/1999/xlink" x="0px" y="0px"
	 viewBox="0 0 200 200" style="enable-background:new 0 0 200 200;" xml:space="preserve">
<path d="M100,50.9c-27.6,0-50,22.5-50,50.2c0,21.6,13.7,40.8,34.2,47.6c2.5,0.5,3.4-1.1,3.4-2.4c0-1.2,0-4.3-0.1-8.5
	c-13.9,3-16.8-6.7-16.8-6.7c-2.3-5.8-5.6-7.3-5.6-7.3c-4.5-3.1,0.3-3,0.3-3c5,0.4,7.7,5.2,7.7,5.2c4.5,7.7,11.7,5.5,14.6,4.2
	c0.5-3.2,1.7-5.5,3.2-6.7c-11.1-1.3-22.8-5.6-22.8-24.8c0-5.5,2-10,5.2-13.5c-0.5-1.3-2.2-6.4,0.5-13.3c0,0,4.2-1.4,13.7,5.1
	c4.1-1.1,8.3-1.7,12.5-1.7c4.2,0,8.4,0.6,12.5,1.7c9.5-6.5,13.7-5.1,13.7-5.1c2.7,6.9,1,12,0.5,13.3c3.2,3.5,5.1,8,5.1,13.5
	c0,19.3-11.7,23.5-22.8,24.8c1.8,1.6,3.4,4.6,3.4,9.3c0,6.7-0.1,12.1-0.1,13.8c0,1.3,0.9,2.9,3.4,2.4c20.4-6.9,34.2-26.1,34.2-47.6
	C150,73.3,127.6,50.9,100,50.9z"/>
</svg>
