<?xml version="1.0" encoding="utf-8"?>
<!-- Generator: Adobe Illustrator 26.0.1, SVG Export Plug-In . SVG Version: 6.00 Build 0)  -->
<svg version="1.1" id="Layer_1" xmlns="http://www.w3.org/2000/svg" xmlns:xlink="http://www.w3.org/1999/xlink" x="0px" y="0px"
	 viewBox="0 0 200 200" style="enable-background:new 0 0 200 200;" xml:space="preserve">
<style type="text/css">
	.st0{fill:#E44D26;}
	.st1{fill:#F16529;}
	.st2{fill:#EBEBEB;}
	.st3{fill:#FFFFFF;}
</style>
<path class="st0" d="M150,57.2l-9.1,102.1l-41,11.4l-40.8-11.3L50,57.2H150L150,57.2z"/>
<path class="st1" d="M100,161.9l33.1-9.2l7.8-87.2H100V161.9z"/>
<path class="st2" d="M82.3,90.5H100V78H68.6l0.3,3.4l3.1,34.5h28v-12.5H83.4L82.3,90.5z M85.1,122.1H72.5l1.8,19.7l25.6,7.1l0.1,0
	v-13l-0.1,0L86,132.1L85.1,122.1L85.1,122.1z"/>
<path d="M59.3,29.4h6.4v6.3h5.8v-6.3h6.4v19h-6.4v-6.4h-5.8v6.4h-6.4L59.3,29.4L59.3,29.4z M86.2,35.7h-5.6v-6.3h17.6v6.3h-5.6v12.7
	h-6.4L86.2,35.7L86.2,35.7L86.2,35.7z M101,29.4h6.6l4.1,6.7l4.1-6.7h6.6v19h-6.3V39l-4.4,6.8h-0.1l-4.4-6.8v9.4H101V29.4z
	 M125.6,29.4h6.4v12.7h8.9v6.3h-15.3L125.6,29.4L125.6,29.4z"/>
<path class="st3" d="M100,115.9h15.4l-1.5,16.2l-14,3.8v13l25.7-7.1l0.2-2.1l2.9-33l0.3-3.4H100V115.9L100,115.9z M100,90.5
	L100,90.5l30.2,0l0.3-2.8l0.6-6.3l0.3-3.4H100V90.5L100,90.5z"/>
</svg>
