<?xml version="1.0" encoding="utf-8"?>
<!-- Generator: Adobe Illustrator 26.0.1, SVG Export Plug-In . SVG Version: 6.00 Build 0)  -->
<svg version="1.1" id="Layer_1" xmlns="http://www.w3.org/2000/svg" xmlns:xlink="http://www.w3.org/1999/xlink" x="0px" y="0px"
	 viewBox="0 0 200 200" style="enable-background:new 0 0 200 200;" xml:space="preserve">
<style type="text/css">
	.st0{fill:url(#SVGID_1_);}
	.st1{fill:#087CFA;}
	.st2{fill:url(#SVGID_00000042017926397777220010000005662338668345039775_);}
	.st3{fill:url(#SVGID_00000065047881477566798040000008388568017590281645_);}
	.st4{fill:#FFFFFF;}
</style>
<linearGradient id="SVGID_1_" gradientUnits="userSpaceOnUse" x1="56.9551" y1="94.0159" x2="106.726" y2="96.5472" gradientTransform="matrix(1 0 0 -1 0 201)">
	<stop  offset="9.000000e-02" style="stop-color:#FC801D"/>
	<stop  offset="0.23" style="stop-color:#B07F61"/>
	<stop  offset="0.41" style="stop-color:#577DB3"/>
	<stop  offset="0.53" style="stop-color:#1E7CE6"/>
	<stop  offset="0.59" style="stop-color:#087CFA"/>
</linearGradient>
<path class="st0" d="M65.4,120.5l-14.7-11.6l8.7-16l13,4.4L65.4,120.5z"/>
<path class="st1" d="M149.6,76.7l-1.8,57.9L109.2,150l-21-13.5L149.6,76.7z"/>
<linearGradient id="SVGID_00000053503513773031597670000005965313438145019544_" gradientUnits="userSpaceOnUse" x1="138.0902" y1="99.3123" x2="121.4964" y2="148.8956" gradientTransform="matrix(1 0 0 -1 0 201)">
	<stop  offset="0" style="stop-color:#FE2857"/>
	<stop  offset="8.000000e-02" style="stop-color:#CB3979"/>
	<stop  offset="0.16" style="stop-color:#9E4997"/>
	<stop  offset="0.25" style="stop-color:#7557B2"/>
	<stop  offset="0.34" style="stop-color:#5362C8"/>
	<stop  offset="0.44" style="stop-color:#386CDA"/>
	<stop  offset="0.54" style="stop-color:#2373E8"/>
	<stop  offset="0.66" style="stop-color:#1478F2"/>
	<stop  offset="0.79" style="stop-color:#0B7BF8"/>
	<stop  offset="1" style="stop-color:#087CFA"/>
</linearGradient>
<path style="fill:url(#SVGID_00000053503513773031597670000005965313438145019544_);" d="M149.6,76.7l-19.1,18.6l-24.5-30l12.1-13.6
	L149.6,76.7z"/>
<linearGradient id="SVGID_00000035512370316002201980000006757129013967651473_" gradientUnits="userSpaceOnUse" x1="64.8334" y1="127.9705" x2="127.4167" y2="24.4497" gradientTransform="matrix(1 0 0 -1 0 201)">
	<stop  offset="0" style="stop-color:#FE2857"/>
	<stop  offset="8.000000e-02" style="stop-color:#FE295F"/>
	<stop  offset="0.21" style="stop-color:#FF2D76"/>
	<stop  offset="0.3" style="stop-color:#FF318C"/>
	<stop  offset="0.38" style="stop-color:#EA3896"/>
	<stop  offset="0.55" style="stop-color:#B248AE"/>
	<stop  offset="0.79" style="stop-color:#5A63D6"/>
	<stop  offset="1" style="stop-color:#087CFA"/>
</linearGradient>
<path style="fill:url(#SVGID_00000035512370316002201980000006757129013967651473_);" d="M88.3,136.5l-30.6,11.1l6.4-22.5l8.3-27.8
	l-22.8-7.6L64,50l32.7,3.9l33.7,41.4L88.3,136.5z"/>
<path d="M68.8,68.8h62.5v62.5H68.8V68.8z"/>
<g>
	<path class="st4" d="M76.6,119.4H100v3.9H76.6V119.4z"/>
	<path class="st4" d="M88.3,80.9v-4.3H76.6v4.3h3.3v14.8h-3.3v4.3h11.7v-4.3H85V80.9H88.3z"/>
	<path class="st4" d="M99.4,100.2c-1.6,0.1-3.2-0.3-4.6-1c-1.2-0.6-2.2-1.5-3-2.5l3.2-3.6c0.6,0.7,1.3,1.2,2,1.7
		c0.7,0.4,1.4,0.6,2.2,0.6c0.9,0,1.7-0.3,2.3-0.9c0.6-0.8,0.9-1.9,0.8-2.9v-15h5.2v15.3c0,1.2-0.2,2.5-0.6,3.6
		c-0.7,2-2.3,3.5-4.2,4.2C101.7,100,100.5,100.2,99.4,100.2"/>
</g>
</svg>
