<?xml version="1.0" encoding="utf-8"?>
<!-- Generator: Adobe Illustrator 26.0.1, SVG Export Plug-In . SVG Version: 6.00 Build 0)  -->
<svg version="1.1" id="Layer_1" xmlns="http://www.w3.org/2000/svg" xmlns:xlink="http://www.w3.org/1999/xlink" x="0px" y="0px"
	 viewBox="0 0 200 200" style="enable-background:new 0 0 200 200;" xml:space="preserve">
<style type="text/css">
	.st0{fill:#0074BD;}
	.st1{fill:#EA2D2E;}
</style>
<path class="st0" d="M82.2,137.1c0,0-5.2,3,3.7,4c10.7,1.2,16.2,1.1,28.1-1.2c0,0,3.1,1.9,7.5,3.6C94.9,154.9,61.4,142.9,82.2,137.1
	z M79,122.2c0,0-5.8,4.3,3.1,5.2c11.5,1.2,20.5,1.3,36.2-1.7c0,0,2.2,2.2,5.6,3.4C91.7,138.5,56,129.8,79,122.2z"/>
<path class="st1" d="M106.3,97c6.5,7.5-1.7,14.3-1.7,14.3s16.6-8.6,9-19.3c-7.1-10-12.6-15,17-32.1C130.6,59.9,84.1,71.5,106.3,97z"
	/>
<path class="st0" d="M141.4,148c0,0,3.8,3.2-4.2,5.6c-15.3,4.6-63.8,6-77.2,0.2c-4.8-2.1,4.2-5,7.1-5.6c3-0.6,4.7-0.5,4.7-0.5
	c-5.4-3.8-34.8,7.4-14.9,10.7C110.9,167.1,155.4,154.4,141.4,148z M84.7,106.8c0,0-24.6,5.9-8.7,8c6.7,0.9,20.1,0.7,32.6-0.4
	c10.2-0.9,20.4-2.7,20.4-2.7s-3.6,1.5-6.2,3.3c-25,6.6-73.4,3.5-59.5-3.2C75.1,106.2,84.7,106.8,84.7,106.8z M128.9,131.5
	c25.4-13.2,13.7-25.9,5.5-24.2c-2,0.4-2.9,0.8-2.9,0.8s0.7-1.2,2.2-1.7c16.2-5.7,28.7,16.8-5.2,25.8
	C128.4,132.2,128.8,131.9,128.9,131.5z"/>
<path class="st1" d="M113.6,32.2c0,0,14.1,14.1-13.4,35.8c-22,17.4-5,27.3,0,38.6C87.3,95,77.9,84.8,84.2,75.3
	C93.5,61.4,119.2,54.6,113.6,32.2z"/>
<path class="st0" d="M87.2,167.4c24.4,1.6,61.9-0.9,62.8-12.4c0,0-1.7,4.4-20.2,7.9c-20.8,3.9-46.5,3.5-61.8,0.9
	C68,163.8,71.2,166.3,87.2,167.4z"/>
</svg>
