<?xml version="1.0" encoding="utf-8"?>
<!-- Generator: Adobe Illustrator 26.0.1, SVG Export Plug-In . SVG Version: 6.00 Build 0)  -->
<svg version="1.1" id="Layer_1" xmlns="http://www.w3.org/2000/svg" xmlns:xlink="http://www.w3.org/1999/xlink" x="0px" y="0px"
	 viewBox="0 0 200 200" style="enable-background:new 0 0 200 200;" xml:space="preserve">
<style type="text/css">
	.st0{fill:#F7DF1E;}
</style>
<path class="st0" d="M50,50h100v100H50V50z"/>
<path d="M76.3,133.6l7.7-4.6c1.5,2.6,2.8,4.8,6,4.8c3.1,0,5-1.2,5-5.9v-32h9.4V128c0,9.7-5.7,14.2-14,14.2
	C82.9,142.2,78.5,138.3,76.3,133.6 M109.5,132.6l7.7-4.4c2,3.3,4.6,5.7,9.3,5.7c3.9,0,6.4-1.9,6.4-4.6c0-3.2-2.6-4.4-6.8-6.2l-2.3-1
	c-6.8-2.9-11.3-6.5-11.3-14.2c0-7,5.4-12.4,13.8-12.4c6,0,10.3,2.1,13.4,7.5l-7.3,4.7c-1.6-2.9-3.4-4-6-4c-2.8,0-4.5,1.7-4.5,4
	c0,2.8,1.7,4,5.8,5.7l2.3,1c8,3.4,12.5,6.9,12.5,14.8c0,8.5-6.6,13.1-15.6,13.1C117.9,142.2,112.3,138,109.5,132.6"/>
</svg>
