<?xml version="1.0" encoding="utf-8"?>
<!-- Generator: Adobe Illustrator 26.0.1, SVG Export Plug-In . SVG Version: 6.00 Build 0)  -->
<svg version="1.1" id="Layer_1" xmlns="http://www.w3.org/2000/svg" xmlns:xlink="http://www.w3.org/1999/xlink" x="0px" y="0px"
	 viewBox="0 0 200 200" style="enable-background:new 0 0 200 200;" xml:space="preserve">
<style type="text/css">
	.st0{fill-rule:evenodd;clip-rule:evenodd;fill:#FF2D20;}
</style>
<path class="st0" d="M149.9,71.8c0,0.1,0.1,0.3,0.1,0.4v22.1c0,0.6-0.3,1.1-0.8,1.4l-18.5,10.7v21.2c0,0.6-0.3,1.1-0.8,1.4
	l-38.7,22.3c-0.1,0.1-0.2,0.1-0.3,0.1c0,0-0.1,0-0.1,0c-0.3,0.1-0.6,0.1-0.8,0c0,0-0.1,0-0.1-0.1c-0.1,0-0.2-0.1-0.3-0.1L50.8,129
	c-0.5-0.3-0.8-0.8-0.8-1.4V61.3c0-0.1,0-0.3,0.1-0.4c0,0,0-0.1,0.1-0.1c0-0.1,0.1-0.2,0.1-0.2c0-0.1,0.1-0.1,0.1-0.1
	c0-0.1,0.1-0.1,0.1-0.2c0,0,0.1-0.1,0.2-0.1c0.1,0,0.1-0.1,0.2-0.1h0l19.4-11.1c0.5-0.3,1.1-0.3,1.6,0l19.4,11.1h0
	c0.1,0,0.1,0.1,0.2,0.1c0.1,0,0.1,0.1,0.2,0.1c0.1,0.1,0.1,0.1,0.1,0.2c0,0,0.1,0.1,0.1,0.1c0,0.1,0.1,0.2,0.1,0.2
	c0,0,0,0.1,0.1,0.1c0,0.1,0.1,0.3,0.1,0.4v41.4l16.1-9.3V72.2c0-0.1,0-0.3,0.1-0.4c0,0,0-0.1,0.1-0.1c0-0.1,0.1-0.2,0.1-0.2
	c0-0.1,0.1-0.1,0.1-0.1c0-0.1,0.1-0.1,0.1-0.2c0,0,0.1-0.1,0.2-0.1c0.1,0,0.1-0.1,0.2-0.1h0l19.4-11.1c0.5-0.3,1.1-0.3,1.6,0
	l19.4,11.1c0.1,0,0.1,0.1,0.2,0.1c0.1,0,0.1,0.1,0.2,0.1c0.1,0.1,0.1,0.1,0.1,0.2c0,0,0.1,0.1,0.1,0.1c0,0.1,0.1,0.2,0.1,0.2
	C149.9,71.7,149.9,71.8,149.9,71.8z M146.8,93.4V75l-6.8,3.9l-9.4,5.4v18.4L146.8,93.4L146.8,93.4z M127.4,126.6v-18.4l-9.2,5.3
	l-26.3,15v18.6C91.9,147.1,127.4,126.6,127.4,126.6z M53.2,64.1v62.6l35.5,20.4v-18.6L70.2,118l0,0l0,0c-0.1,0-0.1-0.1-0.2-0.1
	c-0.1,0-0.1-0.1-0.2-0.1l0,0c-0.1-0.1-0.1-0.1-0.1-0.2c0-0.1-0.1-0.1-0.1-0.2l0,0c0-0.1-0.1-0.1-0.1-0.2c0-0.1-0.1-0.1-0.1-0.2v0
	c0-0.1,0-0.2,0-0.2c0-0.1,0-0.1,0-0.2v0V73.4L60,68L53.2,64.1L53.2,64.1z M71,52l-16.1,9.3L71,70.6l16.1-9.3L71,52L71,52z
	 M79.4,109.9l9.4-5.4V64.1L81.9,68l-9.4,5.4v40.5C72.6,113.8,79.4,109.9,79.4,109.9z M129,63l-16.1,9.3l16.1,9.3l16.1-9.3
	C145.2,72.2,129,63,129,63z M127.4,84.3l-9.4-5.4l-6.8-3.9v18.4l9.4,5.4l6.8,3.9C127.4,102.7,127.4,84.3,127.4,84.3z M90.3,125.7
	l23.6-13.5l11.8-6.7l-16.1-9.3l-18.6,10.7l-16.9,9.7C74.2,116.6,90.3,125.7,90.3,125.7z"/>
</svg>
