<?xml version="1.0" encoding="utf-8"?>
<!-- Generator: Adobe Illustrator 26.0.1, SVG Export Plug-In . SVG Version: 6.00 Build 0)  -->
<svg version="1.1" id="Layer_1" xmlns="http://www.w3.org/2000/svg" xmlns:xlink="http://www.w3.org/1999/xlink" x="0px" y="0px"
	 viewBox="0 0 200 200" style="enable-background:new 0 0 200 200;" xml:space="preserve">
<style type="text/css">
	.st0{fill:#00618A;}
	.st1{fill:#E48E00;}
</style>
<path class="st0" d="M50,121.3h3.3v-13.1l5.1,11.4c0.6,1.4,1.4,1.9,3.1,1.9s2.4-0.5,3-1.9l5.1-11.4v13.1H73v-13.1
	c0-1.3-0.5-1.9-1.6-2.2c-2.5-0.8-4.2-0.1-5,1.6l-5,11.3l-4.9-11.3c-0.7-1.7-2.5-2.4-5-1.6c-1.1,0.3-1.6,0.9-1.6,2.2L50,121.3
	L50,121.3z M75.7,110.7H79v7.2c0,0.4,0.1,1.3,1.9,1.3c0.9,0,7.1,0,7.2,0v-8.6h3.3c0,0,0,11.7,0,11.8c0,2.9-3.6,3.5-5.2,3.6H75.8
	v-2.2c0,0,10.5,0,10.5,0c2.1-0.2,1.9-1.3,1.9-1.6v-0.9h-7c-3.3,0-5.4-1.5-5.4-3.1C75.7,118,75.8,110.8,75.7,110.7z"/>
<path class="st1" d="M94.1,121.3h9.5c1.1,0,2.2-0.2,3.1-0.6c1.4-0.7,2.1-1.6,2.1-2.7v-2.4c0-1-0.8-1.8-2.4-2.4
	c-0.8-0.3-1.8-0.5-2.8-0.5h-4c-1.3,0-2-0.4-2.1-1.3c0-0.1,0-0.2,0-0.3v-1.5c0-0.1,0-0.2,0-0.3c0.2-0.7,0.5-0.9,1.7-1l0.3,0h9.5V106
	h-9.3c-1.3,0-2,0.1-2.7,0.3c-2,0.6-2.8,1.6-2.8,3.3v1.9c0,1.5,1.7,2.8,4.5,3.1c0.3,0,0.6,0,1,0h3.4c0.1,0,0.3,0,0.4,0
	c1.1,0.1,1.5,0.3,1.8,0.7c0.2,0.2,0.3,0.4,0.3,0.6v1.9c0,0.2-0.2,0.5-0.5,0.8c-0.3,0.3-0.8,0.4-1.4,0.5l-0.4,0h-9.1
	C94.1,119.1,94.1,121.3,94.1,121.3z M129.4,117.5c0,2.3,1.7,3.5,5.1,3.8c0.3,0,0.6,0,1,0h8.6v-2.2h-8.7c-1.9,0-2.7-0.5-2.7-1.7V106
	h-3.3L129.4,117.5L129.4,117.5z M110.9,117.6v-7.9c0-2,1.4-3.2,4.2-3.6c0.3,0,0.6-0.1,0.9-0.1h6.3c0.3,0,0.6,0,0.9,0.1
	c2.8,0.4,4.2,1.6,4.2,3.6v7.9c0,1.6-0.6,2.5-2,3.1l3.3,2.9h-3.8l-2.6-2.4l-2.7,0.2H116c-0.6,0-1.2-0.1-1.9-0.3
	C111.9,120.5,110.9,119.4,110.9,117.6z M114.5,117.4c0,0.1,0,0.2,0.1,0.3c0.2,0.9,1.1,1.4,2.4,1.4h3l-2.8-2.5h3.8l2.4,2.2
	c0.4-0.2,0.7-0.6,0.8-1.1c0-0.1,0-0.2,0-0.3v-7.6c0-0.1,0-0.2,0-0.3c-0.2-0.9-1.1-1.3-2.3-1.3h-5c-1.5,0-2.4,0.6-2.4,1.6
	L114.5,117.4L114.5,117.4z"/>
<path class="st0" d="M147,102.4c-2-0.1-3.6,0.1-4.9,0.7c-0.4,0.2-1,0.2-1,0.6c0.2,0.2,0.2,0.5,0.4,0.8c0.3,0.5,0.9,1.2,1.3,1.6
	c0.5,0.4,1.1,0.8,1.6,1.2c1,0.6,2.1,1,3.1,1.6c0.6,0.4,1.1,0.8,1.7,1.2c0.3,0.2,0.5,0.5,0.8,0.6v-0.1c-0.2-0.2-0.2-0.6-0.4-0.8
	l-0.8-0.8c-0.7-1-1.7-1.8-2.7-2.5c-0.8-0.6-2.6-1.3-2.9-2.3l-0.1-0.1c0.6-0.1,1.2-0.3,1.7-0.4c0.9-0.2,1.6-0.2,2.5-0.4l1.2-0.3v-0.2
	c-0.5-0.5-0.8-1.1-1.3-1.5c-1.3-1.1-2.7-2.2-4.2-3.1c-0.8-0.5-1.8-0.8-2.7-1.3c-0.3-0.1-0.8-0.2-1-0.5c-0.5-0.6-0.7-1.3-1-2
	c-0.7-1.4-1.4-2.9-2.1-4.4c-0.4-1-0.7-2-1.3-2.9c-2.6-4.3-5.5-6.9-9.8-9.5c-0.9-0.5-2.1-0.8-3.2-1l-1.9-0.1
	c-0.4-0.2-0.8-0.6-1.2-0.9c-1.5-0.9-5.2-2.9-6.3-0.3c-0.7,1.7,1,3.3,1.6,4.1c0.4,0.6,1,1.2,1.3,1.9c0.2,0.4,0.2,0.9,0.4,1.3
	c0.4,1.1,0.8,2.4,1.3,3.4c0.3,0.5,0.6,1.1,0.9,1.6c0.2,0.3,0.6,0.4,0.6,0.9c-0.4,0.5-0.4,1.3-0.6,1.9c-0.9,2.9-0.6,6.4,0.8,8.5
	c0.4,0.6,1.4,2,2.7,1.5c1.1-0.5,0.9-1.9,1.2-3.2c0.1-0.3,0-0.5,0.2-0.7v0.1l1,2.1c0.8,1.2,2.1,2.5,3.3,3.4c0.6,0.5,1.1,1.2,1.9,1.5
	v-0.1h-0.1c-0.2-0.2-0.4-0.3-0.6-0.5c-0.5-0.4-1-1-1.3-1.5c-1.1-1.4-2-3-2.8-4.6c-0.4-0.8-0.8-1.6-1.1-2.4c-0.1-0.3-0.1-0.8-0.4-0.9
	c-0.4,0.6-0.9,1.1-1.2,1.7c-0.5,1.1-0.5,2.4-0.7,3.8l-0.1,0.1c-0.8-0.2-1.1-1-1.4-1.7c-0.8-1.8-0.9-4.7-0.2-6.8
	c0.2-0.5,1-2.2,0.6-2.7c-0.2-0.5-0.6-0.8-0.9-1.2c-0.3-0.5-0.7-1.1-0.9-1.6c-0.6-1.4-0.9-3-1.6-4.4c-0.3-0.7-0.8-1.4-1.3-2
	c-0.5-0.7-1-1.2-1.4-2c-0.1-0.3-0.3-0.7-0.1-1c0.1-0.2,0.2-0.3,0.3-0.3c0.3-0.3,1.3,0.1,1.6,0.2c0.9,0.4,1.7,0.8,2.5,1.3
	c0.4,0.3,0.8,0.7,1.2,0.9h0.5c0.8,0.2,1.7,0.1,2.5,0.3c1.3,0.4,2.6,1,3.6,1.7c3.3,2.1,6.1,5.1,7.9,8.7c0.3,0.6,0.4,1.1,0.7,1.7
	c0.5,1.2,1.2,2.5,1.7,3.7c0.5,1.2,1,2.4,1.8,3.4c0.4,0.5,1.9,0.8,2.6,1.1c0.5,0.2,1.3,0.4,1.7,0.7c0.9,0.5,1.7,1.2,2.5,1.7
	C145.7,101.2,147,101.9,147,102.4z M121.2,80.3c-0.4,0-0.7,0-1,0.1v0.1h0.1c0.2,0.4,0.6,0.7,0.8,1l0.6,1.2l0.1-0.1
	c0.4-0.3,0.5-0.7,0.5-1.3c-0.1-0.2-0.2-0.3-0.3-0.5C121.7,80.7,121.4,80.5,121.2,80.3z"/>
</svg>
