<?xml version="1.0" encoding="utf-8"?>
<!-- Generator: Adobe Illustrator 26.0.1, SVG Export Plug-In . SVG Version: 6.00 Build 0)  -->
<svg version="1.1" id="Layer_1" xmlns="http://www.w3.org/2000/svg" xmlns:xlink="http://www.w3.org/1999/xlink" x="0px" y="0px"
	 viewBox="0 0 200 200" style="enable-background:new 0 0 200 200;" xml:space="preserve">
<style type="text/css">
	.st0{fill:#6181B6;}
</style>
<path class="st0" d="M100,74.7C72.4,74.7,50,86,50,100s22.4,25.3,50,25.3s50-11.3,50-25.3S127.6,74.7,100,74.7z M87,104.9
	c-1.2,1.1-2.5,1.6-4,2.1c-1.5,0.5-3.3,0.4-5.6,0.4h-5.1l-1.4,8.2h-6l5.3-27.8h11.5c3.5,0,6,1,7.6,2.8c1.6,1.8,2.1,4.4,1.4,7.6
	c-0.3,1.3-0.7,2.6-1.3,3.7C88.8,103,88,104,87,104.9z M104.4,107.4l2.4-11.8c0.3-1.4,0.2-2.4-0.3-2.9c-0.5-0.5-1.5-0.8-3-0.8h-4.7
	l-3.1,15.5h-5.9l5.3-27h5.9l-1.4,7.4h5.3c3.3,0,5.6,0.7,6.9,1.8c1.3,1.2,1.6,2.7,1.1,5.3l-2.5,12.5H104.4z M137.4,98.2
	c-0.3,1.3-0.7,2.6-1.3,3.7c-0.6,1.1-1.4,2.1-2.4,3c-1.2,1.1-2.5,1.6-4,2.1c-1.5,0.5-3.3,0.4-5.6,0.4H119l-1.4,8.2h-6l5.3-27.8h11.5
	c3.5,0,6,1,7.6,2.8C137.5,92.3,138,95,137.4,98.2z M126.1,91.8H122l-2.2,11.5h3.6c2.4,0,4.2-0.2,5.4-1.1c1.2-0.9,2-2.3,2.4-4.4
	c0.4-2,0.2-3.6-0.5-4.5C129.9,92.4,128.4,91.8,126.1,91.8z M79.5,91.8h-4.1l-2.2,11.5h3.6c2.4,0,4.2-0.2,5.4-1.1
	c1.2-0.9,2-2.3,2.4-4.4c0.4-2,0.2-3.6-0.5-4.5S81.8,91.8,79.5,91.8z"/>
</svg>
