<?xml version="1.0" encoding="utf-8"?>
<!-- Generator: Adobe Illustrator 26.0.1, SVG Export Plug-In . SVG Version: 6.00 Build 0)  -->
<svg version="1.1" id="Layer_1" xmlns="http://www.w3.org/2000/svg" xmlns:xlink="http://www.w3.org/1999/xlink" x="0px" y="0px"
	 viewBox="0 0 200 200" style="enable-background:new 0 0 200 200;" xml:space="preserve">
<style type="text/css">
	.st0{fill:url(#SVGID_1_);}
	.st1{fill:url(#SVGID_00000165926326239394729190000013944136442674518188_);}
	.st2{fill:url(#SVGID_00000047771118651797168610000002566643897302592181_);}
	.st3{fill:url(#SVGID_00000179620802637014245970000018011213487884771740_);}
	.st4{fill:#FFFFFF;}
</style>
<linearGradient id="SVGID_1_" gradientUnits="userSpaceOnUse" x1="72.1828" y1="120.7315" x2="80.6723" y2="137.7003" gradientTransform="matrix(1 0 0 -1 0 201)">
	<stop  offset="0" style="stop-color:#AF1DF5"/>
	<stop  offset="0.21" style="stop-color:#BC20E4"/>
	<stop  offset="0.63" style="stop-color:#DD29B8"/>
	<stop  offset="1" style="stop-color:#FF318C"/>
</linearGradient>
<path class="st0" d="M105.2,68.6l-3.3-10.1L67.1,51L50,70.3l18.7,9.6V68.6L105.2,68.6z"/>
<linearGradient id="SVGID_00000022529853315180649250000007532974604665178808_" gradientUnits="userSpaceOnUse" x1="46.9366" y1="85.6986" x2="82.7595" y2="133.0215" gradientTransform="matrix(1 0 0 -1 0 201)">
	<stop  offset="2.000000e-02" style="stop-color:#6B57FF"/>
	<stop  offset="0.42" style="stop-color:#B74AF7"/>
	<stop  offset="0.75" style="stop-color:#FF318C"/>
</linearGradient>
<path style="fill:url(#SVGID_00000022529853315180649250000007532974604665178808_);" d="M68.8,75.1L50,70.3l9.5,57.2l9.2-0.1
	L68.8,75.1z"/>
<linearGradient id="SVGID_00000073708126373587705100000009554145683411368879_" gradientUnits="userSpaceOnUse" x1="138.3378" y1="87.1998" x2="113.5045" y2="146.1165" gradientTransform="matrix(1 0 0 -1 0 201)">
	<stop  offset="0" style="stop-color:#293896"/>
	<stop  offset="8.000000e-02" style="stop-color:#3B3AA2"/>
	<stop  offset="0.29" style="stop-color:#6740C0"/>
	<stop  offset="0.49" style="stop-color:#8A44D8"/>
	<stop  offset="0.68" style="stop-color:#A347E9"/>
	<stop  offset="0.86" style="stop-color:#B249F3"/>
	<stop  offset="1" style="stop-color:#B74AF7"/>
</linearGradient>
<path style="fill:url(#SVGID_00000073708126373587705100000009554145683411368879_);" d="M131.2,68.6H98.6l13.1-11.6l25.2,4.7
	L150,94l-18.7,18.6L131.2,68.6z"/>
<linearGradient id="SVGID_00000110442702471055494540000008803191139055558590_" gradientUnits="userSpaceOnUse" x1="123.1062" y1="58.241" x2="106.3562" y2="82.7826" gradientTransform="matrix(1 0 0 -1 0 201)">
	<stop  offset="2.000000e-02" style="stop-color:#6B57FF"/>
	<stop  offset="0.78" style="stop-color:#B74AF7"/>
</linearGradient>
<path style="fill:url(#SVGID_00000110442702471055494540000008803191139055558590_);" d="M131.3,93.5l0,37.6H77.6l1.4,8.2l33.7,11.8
	l37.3-22.4L131.3,93.5z"/>
<path d="M68.8,68.7h62.5v62.5H68.8V68.7z"/>
<g>
	<path class="st4" d="M76.5,119.4H100v3.9H76.5V119.4z"/>
	<path class="st4" d="M97,96.6l3.1-3.7c1.9,1.8,4.4,2.8,7,2.9c2.1,0,3.4-0.8,3.4-2.2v-0.1c0-1.3-0.8-2-4.7-3
		c-4.7-1.2-7.8-2.5-7.8-7.2v-0.1c0-4.3,3.4-7.1,8.2-7.1c3.2-0.1,6.3,1,8.7,3l-2.7,3.9c-1.8-1.4-3.9-2.2-6.1-2.3c-2,0-3,0.9-3,2.1
		v0.1c0,1.5,1,2.1,5.1,3.1c4.8,1.2,7.5,3,7.5,7.1v0.1c0,4.7-3.6,7.3-8.6,7.3C103.3,100.5,99.7,99.1,97,96.6"/>
	<path class="st4" d="M76.6,76.5h9.6c5.6,0,9,3.3,9,8.1v0.1c0,5.4-4.2,8.2-9.5,8.2h-3.9v7h-5.2V76.5z M85.8,88.3
		c2.6,0,4.1-1.5,4.1-3.5v-0.1c0-2.3-1.6-3.6-4.2-3.6h-3.9v7.2L85.8,88.3z"/>
</g>
</svg>
