<?xml version="1.0" encoding="utf-8"?>
<!-- Generator: Adobe Illustrator 26.0.1, SVG Export Plug-In . SVG Version: 6.00 Build 0)  -->
<svg version="1.1" id="Layer_1" xmlns="http://www.w3.org/2000/svg" xmlns:xlink="http://www.w3.org/1999/xlink" x="0px" y="0px"
	 viewBox="0 0 200 200" style="enable-background:new 0 0 200 200;" xml:space="preserve">
<style type="text/css">
	.st0{clip-path:url(#SVGID_00000085965642778193659510000006276636468624133765_);}
	.st1{fill-rule:evenodd;clip-rule:evenodd;fill:#38BDF8;}
</style>
<g>
	<defs>
		<rect id="SVGID_1_" x="50" y="69.7" width="100" height="60"/>
	</defs>
	<clipPath id="SVGID_00000100346626683409346420000012394590177962711727_">
		<use xlink:href="#SVGID_1_"  style="overflow:visible;"/>
	</clipPath>
	<g style="clip-path:url(#SVGID_00000100346626683409346420000012394590177962711727_);">
		<path class="st1" d="M100,69.7c-13.3,0-21.7,6.7-25,20c5-6.7,10.8-9.2,17.5-7.5c3.8,1,6.5,3.7,9.5,6.8c4.9,5,10.6,10.7,23,10.7
			c13.3,0,21.7-6.7,25-20c-5,6.7-10.8,9.2-17.5,7.5c-3.8-0.9-6.5-3.7-9.5-6.8C118.1,75.5,112.4,69.7,100,69.7z M75,99.7
			c-13.3,0-21.7,6.7-25,20c5-6.7,10.8-9.2,17.5-7.5c3.8,1,6.5,3.7,9.5,6.8c4.9,5,10.6,10.7,23,10.7c13.3,0,21.7-6.7,25-20
			c-5,6.7-10.8,9.2-17.5,7.5c-3.8-1-6.5-3.7-9.5-6.8C93.1,105.5,87.4,99.7,75,99.7z"/>
	</g>
</g>
</svg>
