<?xml version="1.0" encoding="utf-8"?>
<!-- Generator: Adobe Illustrator 26.0.1, SVG Export Plug-In . SVG Version: 6.00 Build 0)  -->
<svg version="1.1" id="Layer_1" xmlns="http://www.w3.org/2000/svg" xmlns:xlink="http://www.w3.org/1999/xlink" x="0px" y="0px"
	 viewBox="0 0 200 200" style="enable-background:new 0 0 200 200;" xml:space="preserve">
<style type="text/css">
	.st0{fill-rule:evenodd;clip-rule:evenodd;fill:#FFFFFF;filter:url(#Adobe_OpacityMaskFilter);}
	.st1{mask:url(#mask0_00000116225582280895326390000005100961335735573666_);}
	.st2{fill:#0065A9;}
	.st3{fill:#007ACC;}
	.st4{fill:#1F9CF0;}
	.st5{opacity:0.25;}
	.st6{fill-rule:evenodd;clip-rule:evenodd;fill:url(#SVGID_1_);}
</style>
<defs>
	<filter id="Adobe_OpacityMaskFilter" filterUnits="userSpaceOnUse" x="50" y="50.3" width="100" height="99.4">
		<feColorMatrix  type="matrix" values="1 0 0 0 0  0 1 0 0 0  0 0 1 0 0  0 0 0 1 0"/>
	</filter>
</defs>
<mask maskUnits="userSpaceOnUse" x="50" y="50.3" width="100" height="99.4" id="mask0_00000116225582280895326390000005100961335735573666_">
	<path class="st0" d="M120.9,149.3c1.6,0.6,3.4,0.6,5-0.2l20.6-9.9c2.2-1,3.5-3.2,3.5-5.6V66.4c0-2.4-1.4-4.6-3.5-5.6l-20.6-9.9
		c-2.1-1-4.5-0.8-6.4,0.6c-0.3,0.2-0.5,0.4-0.7,0.6L79.4,88L62.2,75c-1.6-1.2-3.8-1.1-5.3,0.2l-5.5,5c-1.8,1.7-1.8,4.5,0,6.2
		L66.3,100l-14.9,13.6c-1.8,1.7-1.8,4.5,0,6.2l5.5,5c1.5,1.3,3.7,1.4,5.3,0.2l17.2-13l39.4,35.9C119.4,148.5,120.1,149,120.9,149.3z
		 M125,77.3L95.1,100l29.9,22.7V77.3z"/>
</mask>
<g class="st1">
	<path class="st2" d="M146.4,60.8l-20.6-9.9c-2.4-1.1-5.2-0.7-7.1,1.2l-67.4,61.5c-1.8,1.7-1.8,4.5,0,6.2l5.5,5
		c1.5,1.3,3.7,1.4,5.3,0.2l81.2-61.6c2.7-2.1,6.6-0.1,6.6,3.3v-0.2C150,64,148.6,61.9,146.4,60.8z"/>
	<g>
		<path class="st3" d="M146.4,139.2l-20.6,9.9c-2.4,1.1-5.2,0.7-7.1-1.2L51.3,86.4c-1.8-1.7-1.8-4.5,0-6.2l5.5-5
			c1.5-1.3,3.7-1.4,5.3-0.2l81.2,61.6c2.7,2.1,6.6,0.1,6.6-3.3v0.2C150,136,148.6,138.1,146.4,139.2z"/>
	</g>
	<g>
		<path class="st4" d="M125.8,149.1c-2.4,1.1-5.2,0.7-7.1-1.2c2.3,2.3,6.2,0.7,6.2-2.6V54.7c0-3.3-3.9-4.9-6.2-2.6
			c1.9-1.9,4.7-2.4,7.1-1.2l20.6,9.9c2.2,1,3.5,3.2,3.5,5.6v67.1c0,2.4-1.4,4.6-3.5,5.6L125.8,149.1z"/>
	</g>
	<g class="st5">
		
			<linearGradient id="SVGID_1_" gradientUnits="userSpaceOnUse" x1="99.9392" y1="151.712" x2="99.9392" y2="52.288" gradientTransform="matrix(1 0 0 -1 0 202)">
			<stop  offset="0" style="stop-color:#FFFFFF"/>
			<stop  offset="1" style="stop-color:#FFFFFF;stop-opacity:0"/>
		</linearGradient>
		<path class="st6" d="M120.8,149.3c1.6,0.6,3.4,0.6,5-0.2l20.6-9.9c2.2-1,3.5-3.2,3.5-5.6V66.4c0-2.4-1.4-4.6-3.5-5.6l-20.6-9.9
			c-2.1-1-4.5-0.8-6.4,0.6c-0.3,0.2-0.5,0.4-0.7,0.6L79.3,88L62.1,75c-1.6-1.2-3.8-1.1-5.3,0.2l-5.5,5c-1.8,1.7-1.8,4.5,0,6.2
			L66.2,100l-14.9,13.6c-1.8,1.7-1.8,4.5,0,6.2l5.5,5c1.5,1.3,3.7,1.4,5.3,0.2l17.2-13l39.4,35.9C119.3,148.5,120.1,149,120.8,149.3
			z M124.9,77.3L95.1,100l29.9,22.7V77.3z"/>
	</g>
</g>
</svg>
