<?xml version="1.0" encoding="utf-8"?>
<!-- Generator: Adobe Illustrator 27.3.0, SVG Export Plug-In . SVG Version: 6.00 Build 0)  -->
<svg version="1.1" id="Layer_1" xmlns="http://www.w3.org/2000/svg" xmlns:xlink="http://www.w3.org/1999/xlink" x="0px" y="0px"
	 viewBox="0 0 200 200" style="enable-background:new 0 0 200 200;" xml:space="preserve">
<style type="text/css">
	.st0{fill:#3DDB85;}
</style>
<g id="Layer_1_00000013882633168319459120000018199143925276051899_">
	<g>
		<g>
			<path class="st0" d="M123,113.9c-2.3,0-4.2-1.9-4.2-4.2c0-2.3,1.9-4.2,4.2-4.2c2.3,0,4.2,1.9,4.2,4.2
				C127.2,112.1,125.3,113.9,123,113.9 M77,113.9c-2.3,0-4.2-1.9-4.2-4.2c0-2.3,1.9-4.2,4.2-4.2c2.3,0,4.2,1.9,4.2,4.2
				C81.2,112.1,79.3,113.9,77,113.9 M124.5,88.8l8.3-14.4c0.5-0.8,0.2-1.9-0.6-2.4c-0.8-0.5-1.9-0.2-2.4,0.6l-8.4,14.6
				c-6.4-2.9-13.7-4.6-21.4-4.6c-7.7,0-15,1.6-21.4,4.6l-8.4-14.6c-0.5-0.8-1.5-1.1-2.4-0.6c-0.8,0.5-1.1,1.5-0.6,2.4l8.3,14.4
				c-14.3,7.8-24.1,22.2-25.5,39.3h100C148.6,111.1,138.8,96.6,124.5,88.8"/>
		</g>
	</g>
</g>
</svg>
