<?xml version="1.0" encoding="utf-8"?>
<!-- Generator: Adobe Illustrator 27.3.0, SVG Export Plug-In . SVG Version: 6.00 Build 0)  -->
<svg version="1.1" id="Layer_1" xmlns="http://www.w3.org/2000/svg" xmlns:xlink="http://www.w3.org/1999/xlink" x="0px" y="0px"
	 viewBox="0 0 200 200" style="enable-background:new 0 0 200 200;" xml:space="preserve">
<style type="text/css">
	.st0{fill:url(#SVGID_1_);}
	.st1{fill:url(#SVGID_00000021815701693683428120000011555457410858189451_);}
	.st2{fill:url(#SVGID_00000116943131983432243490000001619861073149192832_);}
	.st3{fill:url(#SVGID_00000116943170391404082300000016022086060927089300_);}
	.st4{fill:#FFFFFF;}
</style>
<linearGradient id="SVGID_1_" gradientUnits="userSpaceOnUse" x1="85.9479" y1="132.4479" x2="114.5938" y2="132.4479" gradientTransform="matrix(1 0 0 -1 0 202)">
	<stop  offset="0" style="stop-color:#FF318C"/>
	<stop  offset="0.15" style="stop-color:#FB348C"/>
	<stop  offset="0.28" style="stop-color:#F03C8C"/>
	<stop  offset="0.42" style="stop-color:#DE4A8C"/>
	<stop  offset="0.54" style="stop-color:#C45D8B"/>
	<stop  offset="0.67" style="stop-color:#A2778B"/>
	<stop  offset="0.79" style="stop-color:#79958A"/>
	<stop  offset="0.91" style="stop-color:#49B98A"/>
	<stop  offset="1" style="stop-color:#21D789"/>
</linearGradient>
<path class="st0" d="M85.9,89.1L88.1,50l22.7,12.6L85.9,89.1z"/>
<linearGradient id="SVGID_00000119093337973524084660000014812423362108178104_" gradientUnits="userSpaceOnUse" x1="74.4757" y1="139.3115" x2="59.7673" y2="40.624" gradientTransform="matrix(1 0 0 -1 0 202)">
	<stop  offset="9.000000e-02" style="stop-color:#21D789"/>
	<stop  offset="0.9" style="stop-color:#009AE5"/>
</linearGradient>
<path style="fill:url(#SVGID_00000119093337973524084660000014812423362108178104_);" d="M85.9,89.1L88.1,50L59.2,68.2L50,123.5
	L85.9,89.1z"/>
<linearGradient id="SVGID_00000143598181237951632820000007267889096805615515_" gradientUnits="userSpaceOnUse" x1="141.1996" y1="142.7276" x2="40.5954" y2="36.4776" gradientTransform="matrix(1 0 0 -1 0 202)">
	<stop  offset="9.000000e-02" style="stop-color:#21D789"/>
	<stop  offset="0.9" style="stop-color:#009AE5"/>
</linearGradient>
<path style="fill:url(#SVGID_00000143598181237951632820000007267889096805615515_);" d="M148,80l-12.9-26.2l-24.3,8.8L85.9,89.1
	L50,123.5l32.4,23.6l40.8-36.8L148,80z"/>
<linearGradient id="SVGID_00000090992697810698197800000006675898257185636030_" gradientUnits="userSpaceOnUse" x1="110.7711" y1="76.4601" x2="145.1773" y2="71.5642" gradientTransform="matrix(1 0 0 -1 0 202)">
	<stop  offset="9.000000e-02" style="stop-color:#21D789"/>
	<stop  offset="0.9" style="stop-color:#009AE5"/>
</linearGradient>
<path style="fill:url(#SVGID_00000090992697810698197800000006675898257185636030_);" d="M131.2,107.3v23.9H92l17.3,13.4l25,5.4
	l15.8-35.7L131.2,107.3z"/>
<path d="M68.8,68.8h62.5v62.5H68.8V68.8z"/>
<g>
	<path class="st4" d="M76.5,119.4H100v3.9H76.5V119.4z"/>
	<path class="st4" d="M100.1,76.5h5.2v19.2h10.3v4.3h-15.5L100.1,76.5z"/>
	<path class="st4" d="M74.9,88.4L74.9,88.4c-0.1-6.7,5.2-12.2,11.8-12.3c0.2,0,0.3,0,0.5,0c3.5-0.2,6.9,1.2,9.3,3.6l-3.3,3.8
		c-1.6-1.6-3.8-2.6-6.1-2.7c-4,0-6.8,3.3-6.8,7.4v0.1c0,4.1,2.8,7.4,6.8,7.4c2.7,0,4.4-1,6.2-2.8l3.2,3.4c-2.4,2.8-6,4.3-9.7,4.2
		c-6.6,0.1-12-5.2-12.1-11.7C74.9,88.7,74.9,88.5,74.9,88.4"/>
</g>
</svg>
