<?xml version="1.0" encoding="utf-8"?>
<!-- Generator: Adobe Illustrator 27.3.0, SVG Export Plug-In . SVG Version: 6.00 Build 0)  -->
<svg version="1.1" id="Layer_1" xmlns="http://www.w3.org/2000/svg" xmlns:xlink="http://www.w3.org/1999/xlink" x="0px" y="0px"
	 viewBox="0 0 200 200" style="enable-background:new 0 0 200 200;" xml:space="preserve">
<style type="text/css">
	.st0{clip-path:url(#SVGID_00000075861630278963186830000001479364176979262891_);}
	.st1{fill:#1ABCFE;}
	.st2{fill:#0ACF83;}
	.st3{fill:#FF7262;}
	.st4{fill:#F24E1E;}
	.st5{fill:#A259FF;}
</style>
<g>
	<defs>
		<rect id="SVGID_1_" x="66.7" y="50" width="66.7" height="100"/>
	</defs>
	<clipPath id="SVGID_00000177460775247132185220000015308129625446716848_">
		<use xlink:href="#SVGID_1_"  style="overflow:visible;"/>
	</clipPath>
	<g style="clip-path:url(#SVGID_00000177460775247132185220000015308129625446716848_);">
		<path class="st1" d="M100,100c0-4.4,1.8-8.7,4.9-11.8c3.1-3.1,7.4-4.9,11.8-4.9c4.4,0,8.7,1.8,11.8,4.9c3.1,3.1,4.9,7.4,4.9,11.8
			s-1.8,8.7-4.9,11.8s-7.4,4.9-11.8,4.9c-4.4,0-8.7-1.8-11.8-4.9C101.8,108.7,100,104.4,100,100z"/>
		<path class="st2" d="M66.7,133.3c0-4.4,1.8-8.7,4.9-11.8c3.1-3.1,7.4-4.9,11.8-4.9H100v16.7c0,4.4-1.8,8.7-4.9,11.8
			c-3.1,3.1-7.4,4.9-11.8,4.9c-4.4,0-8.7-1.8-11.8-4.9C68.4,142,66.7,137.8,66.7,133.3L66.7,133.3z"/>
		<path class="st3" d="M100,50v33.3h16.7c4.4,0,8.7-1.8,11.8-4.9c3.1-3.1,4.9-7.4,4.9-11.8c0-4.4-1.8-8.7-4.9-11.8
			c-3.1-3.1-7.4-4.9-11.8-4.9H100z"/>
		<path class="st4" d="M66.7,66.7c0,4.4,1.8,8.7,4.9,11.8c3.1,3.1,7.4,4.9,11.8,4.9H100V50H83.3c-4.4,0-8.7,1.8-11.8,4.9
			C68.4,58,66.7,62.2,66.7,66.7L66.7,66.7z"/>
		<path class="st5" d="M66.7,100c0,4.4,1.8,8.7,4.9,11.8c3.1,3.1,7.4,4.9,11.8,4.9H100V83.3H83.3c-4.4,0-8.7,1.8-11.8,4.9
			C68.4,91.3,66.7,95.6,66.7,100L66.7,100z"/>
	</g>
</g>
</svg>
