<?xml version="1.0" encoding="utf-8"?>
<!-- Generator: Adobe Illustrator 27.3.0, SVG Export Plug-In . SVG Version: 6.00 Build 0)  -->
<svg version="1.1" id="Layer_1" xmlns="http://www.w3.org/2000/svg" xmlns:xlink="http://www.w3.org/1999/xlink" x="0px" y="0px"
	 viewBox="0 0 200 200" style="enable-background:new 0 0 200 200;" xml:space="preserve">
<style type="text/css">
	.st0{fill:url(#path-2_00000059997333943910839050000005767966139853604480_);}
	.st1{filter:url(#Adobe_OpacityMaskFilter);}
	.st2{fill-rule:evenodd;clip-rule:evenodd;fill:#FFFFFF;}
	.st3{mask:url(#mask-3_00000008838989507228500080000005191107258669735358_);}
	.st4{fill:#FFA000;}
	.st5{fill:#F57C00;}
	.st6{fill:#FFCA28;}
	.st7{fill:#FFFFFF;fill-opacity:0.2;}
	.st8{opacity:0.2;fill:#A52714;enable-background:new    ;}
	.st9{filter:url(#Adobe_OpacityMaskFilter_00000087397764796619160000000006812700609890502040_);}
	.st10{mask:url(#mask-3_00000158706872273149356120000014657417670023520135_);fill:none;}
	.st11{filter:url(#Adobe_OpacityMaskFilter_00000143606518358873669280000018262481697823259313_);}
	
		.st12{mask:url(#mask-3_00000027575370663391449780000008078858950170645168_);fill:url(#_Path_5_00000121975848077694538790000003301976538835237258_);}
</style>
<g id="Page-1">
	<g id="styleguide" transform="translate(-664.000000, -1272.000000)">
		<g id="Group-16" transform="translate(40.000000, 1187.000000)">
			<g id="Group-9" transform="translate(114.000000, 0.000000)">
				<g id="Group-26" transform="translate(405.000000, 1.000000)">
					<g id="logo_lockup_firebase_vertical" transform="translate(105.193370, 83.977901)">
						<g id="_Group_">
							<g id="_Path_5">
								
									<linearGradient id="path-2_00000181793995749116342580000008150083309918543514_" gradientUnits="userSpaceOnUse" x1="-850.7675" y1="637.631" x2="-850.1324" y2="637.1692" gradientTransform="matrix(109.5018 0 0 -150.0389 93224.6953 95739.3828)">
									<stop  offset="0" style="stop-color:#FFFFFF;stop-opacity:0.1"/>
									<stop  offset="1" style="stop-color:#FFFFFF;stop-opacity:0"/>
								</linearGradient>
								
									<path id="path-2_00000018931880724414391560000012088332349337064882_" style="fill:url(#path-2_00000181793995749116342580000008150083309918543514_);" d="
									M124.5,74.7c-0.1-0.8-0.7-1.4-1.4-1.6c-0.7-0.2-1.6,0-2.1,0.5l-10.8,10.8l-8.5-16.1c-0.3-0.7-1-1.1-1.8-1.1
									c-0.8,0-1.5,0.4-1.8,1.1l-4.6,8.8L81.6,55.4c-0.9-1.8-3.6-1.3-3.9,0.7L66.5,128l30.2,16.9c1.9,1,4.2,1,6.1,0l30.4-16.9
									L124.5,74.7z"/>
							</g>
							<defs>
								<filter id="Adobe_OpacityMaskFilter" filterUnits="userSpaceOnUse" x="62.6" y="54.3" width="74.4" height="93.9">
									<feColorMatrix  type="matrix" values="1 0 0 0 0  0 1 0 0 0  0 0 1 0 0  0 0 0 1 0"/>
								</filter>
							</defs>
							
								<mask maskUnits="userSpaceOnUse" x="62.6" y="54.3" width="74.4" height="93.9" id="mask-3_00000008838989507228500080000005191107258669735358_">
								<g class="st1">
									<path id="path-2_00000095338734890326625490000007236971371850951609_" class="st2" d="M124.5,74.7
										c-0.1-0.8-0.7-1.4-1.4-1.6c-0.7-0.2-1.6,0-2.1,0.5l-10.8,10.8l-8.5-16.1c-0.3-0.7-1-1.1-1.8-1.1c-0.8,0-1.5,0.4-1.8,1.1
										l-4.6,8.8L81.6,55.4c-0.9-1.8-3.6-1.3-3.9,0.7L66.5,128l30.2,16.9c1.9,1,4.2,1,6.1,0l30.4-16.9L124.5,74.7z"/>
								</g>
							</mask>
							<g id="_Group_2" class="st3">
								<g transform="translate(-6.346125, -0.160154)">
									<g id="_Group_3">
										<path id="_Path_" class="st4" d="M72.8,128.2l11.3-71.9c0.3-2,3-2.4,3.9-0.7l11.7,21.7l4.6-8.8c0.4-0.7,1.1-1.1,1.8-1.1
											s1.5,0.4,1.8,1.1l31.5,59.7H72.8z"/>
										<g id="_Group_4" transform="translate(0.000000, 30.119310)">
											<g style="opacity:0.12;enable-background:new    ;">
												
													<image style="overflow:visible;" width="87" height="112" id="Bitmap" xlink:href="BC88ABA8.png"  transform="matrix(0.5143 0 0 0.5143 68.9351 42.5572)">
												</image>
											</g>
											<polygon id="Shape" class="st5" points="111.8,70.1 99.6,47.2 72.8,98.1 											"/>
										</g>
									</g>
									<g id="_Group_5" transform="translate(3.421930, 23.299844)">
										<g style="opacity:0.2;enable-background:new    ;">
											
												<image style="overflow:visible;" width="140" height="155" id="_Image_" xlink:href="BC88ABA9.png"  transform="matrix(0.5156 0 0 0.5156 67.6785 45.2248)">
											</image>
										</g>
										<g id="_Group_6" transform="translate(3.421930, 7.387755)">
											<path id="_Path_2" class="st6" d="M132.6,97.5L124,44.2c-0.1-0.8-0.7-1.4-1.4-1.6c-0.7-0.2-1.6,0-2.1,0.5L66,97.5
												l30.2,16.9c1.9,1,4.2,1,6.1,0L132.6,97.5z"/>
										</g>
									</g>
									<path id="_Compound_Path_" class="st7" d="M130.8,74.9c-0.1-0.8-0.7-1.4-1.4-1.6c-0.7-0.2-1.6,0-2.1,0.5l-10.8,10.8
										L108,68.5c-0.3-0.7-1-1.1-1.8-1.1c-0.8,0-1.5,0.4-1.8,1.1l-4.6,8.8L88,55.6c-0.9-1.8-3.6-1.3-3.9,0.7l-11.2,71.9h-0.1
										l0.1,0.1l0.3,0.2l43.3-43.3l10.8-10.8c0.6-0.5,1.4-0.7,2.1-0.5c0.7,0.2,1.3,0.9,1.4,1.6l8.5,52.8l0.1-0.1L130.8,74.9z
										 M72.9,128.1l11.2-71.3c0.3-2,3-2.4,3.9-0.7l11.7,21.7l4.6-8.8c0.4-0.7,1.1-1.1,1.8-1.1s1.5,0.4,1.8,1.1l8.3,15.8
										L72.9,128.1z"/>
									<path id="_Path_3" class="st8" d="M109.1,144.6c-1.9,1-4.2,1-6.1,0l-30.1-16.8l-0.1,0.5l30.2,16.9c1.9,1,4.2,1,6.1,0
										l30.4-16.9l-0.1-0.5L109.1,144.6z"/>
								</g>
							</g>
							<defs>
								
									<filter id="Adobe_OpacityMaskFilter_00000008118198656132152860000007645637797495677572_" filterUnits="userSpaceOnUse" x="49.8" y="50.2" width="100" height="99.6">
									<feColorMatrix  type="matrix" values="1 0 0 0 0  0 1 0 0 0  0 0 1 0 0  0 0 0 1 0"/>
								</filter>
							</defs>
							
								<mask maskUnits="userSpaceOnUse" x="49.8" y="50.2" width="100" height="99.6" id="mask-3_00000158706872273149356120000014657417670023520135_">
								<g style="filter:url(#Adobe_OpacityMaskFilter_00000008118198656132152860000007645637797495677572_);">
									<path id="path-2_00000089541238942509730350000010129528325971060616_" class="st2" d="M124.5,74.7
										c-0.1-0.8-0.7-1.4-1.4-1.6c-0.7-0.2-1.6,0-2.1,0.5l-10.8,10.8l-8.5-16.1c-0.3-0.7-1-1.1-1.8-1.1c-0.8,0-1.5,0.4-1.8,1.1
										l-4.6,8.8L81.6,55.4c-0.9-1.8-3.6-1.3-3.9,0.7L66.5,128l30.2,16.9c1.9,1,4.2,1,6.1,0l30.4-16.9L124.5,74.7z"/>
								</g>
							</mask>
							<polygon id="_Path_4" class="st10" points="49.8,50.2 149.8,50.2 149.8,149.8 49.8,149.8 							"/>
							<defs>
								
									<filter id="Adobe_OpacityMaskFilter_00000108273638861570665200000012662563713701948574_" filterUnits="userSpaceOnUse" x="66.5" y="54.3" width="66.7" height="91.3">
									<feColorMatrix  type="matrix" values="1 0 0 0 0  0 1 0 0 0  0 0 1 0 0  0 0 0 1 0"/>
								</filter>
							</defs>
							
								<mask maskUnits="userSpaceOnUse" x="66.5" y="54.3" width="66.7" height="91.3" id="mask-3_00000027575370663391449780000008078858950170645168_">
								<g style="filter:url(#Adobe_OpacityMaskFilter_00000108273638861570665200000012662563713701948574_);">
									<path id="path-2_00000008145422419091632170000004828934589290894773_" class="st2" d="M124.5,74.7
										c-0.1-0.8-0.7-1.4-1.4-1.6c-0.7-0.2-1.6,0-2.1,0.5l-10.8,10.8l-8.5-16.1c-0.3-0.7-1-1.1-1.8-1.1c-0.8,0-1.5,0.4-1.8,1.1
										l-4.6,8.8L81.6,55.4c-0.9-1.8-3.6-1.3-3.9,0.7L66.5,128l30.2,16.9c1.9,1,4.2,1,6.1,0l30.4-16.9L124.5,74.7z"/>
								</g>
							</mask>
							
								<linearGradient id="_Path_5_00000171680426516083039400000001489768361943974784_" gradientUnits="userSpaceOnUse" x1="-850.7675" y1="637.631" x2="-850.1324" y2="637.1692" gradientTransform="matrix(109.5018 0 0 -150.0389 93224.6953 95739.3828)">
								<stop  offset="0" style="stop-color:#FFFFFF;stop-opacity:0.1"/>
								<stop  offset="1" style="stop-color:#FFFFFF;stop-opacity:0"/>
							</linearGradient>
							
								<path id="_Path_5_00000140695324791260371730000012682481929884196757_" style="mask:url(#mask-3_00000027575370663391449780000008078858950170645168_);fill:url(#_Path_5_00000171680426516083039400000001489768361943974784_);" d="
								M124.5,74.7c-0.1-0.8-0.7-1.4-1.4-1.6c-0.7-0.2-1.6,0-2.1,0.5l-10.8,10.8l-8.5-16.1c-0.3-0.7-1-1.1-1.8-1.1
								c-0.8,0-1.5,0.4-1.8,1.1l-4.6,8.8L81.6,55.4c-0.9-1.8-3.6-1.3-3.9,0.7L66.5,128l30.2,16.9c1.9,1,4.2,1,6.1,0l30.4-16.9
								L124.5,74.7z"/>
						</g>
					</g>
				</g>
			</g>
		</g>
	</g>
</g>
</svg>
