<?xml version="1.0" encoding="utf-8"?>
<!-- Generator: Adobe Illustrator 27.3.0, SVG Export Plug-In . SVG Version: 6.00 Build 0)  -->
<svg version="1.1" id="Layer_1" xmlns="http://www.w3.org/2000/svg" xmlns:xlink="http://www.w3.org/1999/xlink" x="0px" y="0px"
	 viewBox="0 0 200 200" style="enable-background:new 0 0 200 200;" xml:space="preserve">
<style type="text/css">
	.st0{fill:url(#SVGID_1_);}
	.st1{fill:url(#SVGID_00000013884097035286374040000017191874495612630656_);}
	.st2{fill:url(#SVGID_00000083767843418101034240000005013902313918402195_);}
	.st3{fill:#FFFFFF;}
</style>
<linearGradient id="SVGID_1_" gradientUnits="userSpaceOnUse" x1="85.8143" y1="149.9171" x2="111.6893" y2="56.7505" gradientTransform="matrix(1 0 0 -1 0 202)">
	<stop  offset="0.28" style="stop-color:#07C3F2"/>
	<stop  offset="0.94" style="stop-color:#087CFA"/>
</linearGradient>
<path class="st0" d="M63.5,140.4L50,60.5l24.9-10.3l15.9,9.5l14.6-7.9l30.4,11.7l-17,86.6L63.5,140.4z"/>
<linearGradient id="SVGID_00000127748623815325776480000005667923878515487647_" gradientUnits="userSpaceOnUse" x1="93.88" y1="138.0901" x2="137.6612" y2="73.8921" gradientTransform="matrix(1 0 0 -1 0 202)">
	<stop  offset="0.14" style="stop-color:#FCF84A"/>
	<stop  offset="0.37" style="stop-color:#07C3F2"/>
</linearGradient>
<path style="fill:url(#SVGID_00000127748623815325776480000005667923878515487647_);" d="M150,83.9L137.1,52l-23.4-2L77.5,84.7
	l9.7,44.8l18.2,12.7l44.6-26.4l-10.9-20.5L150,83.9z"/>
<linearGradient id="SVGID_00000024710825735292657720000008890805395520525952_" gradientUnits="userSpaceOnUse" x1="137.2608" y1="130.1564" x2="143.0108" y2="109.7918" gradientTransform="matrix(1 0 0 -1 0 202)">
	<stop  offset="0.28" style="stop-color:#07C3F2"/>
	<stop  offset="0.94" style="stop-color:#087CFA"/>
</linearGradient>
<path style="fill:url(#SVGID_00000024710825735292657720000008890805395520525952_);" d="M130,79.1l9.1,16.2L150,83.9L142,64
	L130,79.1z"/>
<path d="M68.8,68.8h62.5v62.5H68.8V68.8z"/>
<g>
	<path class="st3" d="M76.5,119.4H100v3.9H76.5V119.4z"/>
	<path class="st3" d="M98.7,76.5l-3.5,13.7l-4-13.7h-4l-4,13.7l-3.5-13.7h-5.5L81,100h4.4l3.8-13.6l3.8,13.6h4.4l6.7-23.4H98.7z"/>
	<path class="st3" d="M105.2,96.6l3.1-3.7c1.9,1.8,4.4,2.8,7,2.9c2.1,0,3.4-0.8,3.4-2.2v-0.1c0-1.3-0.8-2-4.7-3
		c-4.7-1.2-7.8-2.5-7.8-7.2v-0.1c0-4.3,3.4-7.1,8.2-7.1c3.2-0.1,6.3,1,8.7,3l-2.7,3.9c-1.8-1.4-3.9-2.2-6.1-2.3c-2,0-3,0.9-3,2.1
		v0.1c0,1.5,1,2.1,5.1,3.1c4.8,1.2,7.5,3,7.5,7.1v0.1c0,4.7-3.6,7.3-8.6,7.3C111.5,100.5,107.9,99.2,105.2,96.6"/>
</g>
</svg>
